<svg width="22" height="24" viewBox="0 0 22 24" fill="none" xmlns="http://www.w3.org/2000/svg">
<path d="M18.75 16.6154V16.8389L18.9165 16.9879L21.5 19.3004V19.8077H0.5V19.3004L3.08347 16.9879L3.25 16.8389V16.6154V10.4615C3.25 6.88607 5.34583 3.95592 9.04123 3.1722L9.4375 3.08816V2.68308V1.84615C9.4375 1.15142 10.0813 0.5 11 0.5C11.9187 0.5 12.5625 1.15142 12.5625 1.84615V2.68308V3.08786L12.9584 3.17212C16.6407 3.9558 18.75 6.89878 18.75 10.4615V16.6154ZM13.1735 22.0385C12.9221 22.85 12.0758 23.5 11 23.5C9.91395 23.5 9.07416 22.8508 8.8255 22.0385H13.1735Z" stroke="#73C088"/>
</svg>
