<svg width="24" height="24" viewBox="0 0 24 24" fill="none" xmlns="http://www.w3.org/2000/svg">
<path d="M21.3333 2.4H15.76C15.2 1.008 13.7333 0 12 0C10.2667 0 8.8 1.008 8.24 2.4H2.66667C1.2 2.4 0 3.48 0 4.8V21.6C0 22.92 1.2 24 2.66667 24H21.3333C22.8 24 24 22.92 24 21.6V4.8C24 3.48 22.8 2.4 21.3333 2.4ZM12 2.4C12.7333 2.4 13.3333 2.94 13.3333 3.6C13.3333 4.26 12.7333 4.8 12 4.8C11.2667 4.8 10.6667 4.26 10.6667 3.6C10.6667 2.94 11.2667 2.4 12 2.4ZM9.33333 19.2L4 14.4L5.88 12.708L9.33333 15.804L18.12 7.896L20 9.6L9.33333 19.2Z" fill="#495057"/>
</svg>
