<svg width="99" height="49" viewBox="0 0 99 49" fill="none" xmlns="http://www.w3.org/2000/svg">
<path d="M38.82 17V0.242188H45.8512C49.1169 0.242188 50.7497 1.77734 50.7497 4.84766C50.7497 7.87109 48.1364 9.79688 42.9098 10.625L42.6989 9.5C47.152 8.88281 49.3786 7.36328 49.3786 4.94141C49.3786 2.53516 48.1364 1.33203 45.652 1.33203H40.0505V17H38.82ZM57.0173 0.242188V17H55.7869V0.242188H57.0173ZM62.2303 13.5195C62.2303 11.0742 63.8553 9.85156 67.1053 9.85156C68.2537 9.85156 69.4803 9.92969 70.785 10.0859V8.57422C70.785 6.69141 69.6014 5.75 67.2342 5.75C65.9686 5.75 64.6717 5.94531 63.3436 6.33594V5.28125C64.6717 4.89062 65.9686 4.69531 67.2342 4.69531C70.4217 4.69531 72.0155 5.96875 72.0155 8.51562V17H71.2655L70.9842 15.7812C69.4452 16.5938 67.953 17 66.5077 17C63.6561 17 62.2303 15.8398 62.2303 13.5195ZM67.1053 10.9062C64.6756 10.9062 63.4608 11.7656 63.4608 13.4844C63.4608 15.125 64.4764 15.9453 66.5077 15.9453C68.0077 15.9453 69.4334 15.5469 70.785 14.75V11.1406C69.4803 10.9844 68.2537 10.9062 67.1053 10.9062ZM77.6972 17V4.69531H78.5761L78.7284 6.26562C80.2988 5.21875 81.8378 4.69531 83.3456 4.69531C86.3378 4.69531 87.8339 5.98828 87.8339 8.57422V17H86.6034V8.53906C86.6034 6.71094 85.498 5.79688 83.287 5.79688C81.8105 5.79688 80.3573 6.31641 78.9277 7.35547V17H77.6972ZM93.4688 2.70312H94.3359L94.5586 4.69531H98.25V5.75H94.6641V13.5195C94.6641 15.1367 95.2578 15.9453 96.4453 15.9453H98.25V17H96.4688C94.4688 17 93.4688 15.8945 93.4688 13.6836V2.70312ZM0.0815659 44V27.2422H7.11282C10.3784 27.2422 12.0113 28.7773 12.0113 31.8477C12.0113 34.8711 9.39797 36.7969 4.17141 37.625L3.96047 36.5C8.4136 35.8828 10.6402 34.3633 10.6402 31.9414C10.6402 29.5352 9.39797 28.332 6.9136 28.332H1.31203V44H0.0815659ZM26.9508 31.6953V44H26.0484L25.9078 42.4297C24.4938 43.4766 22.9156 44 21.1734 44C18.2672 44 16.8141 42.4727 16.8141 39.418V31.6953H18.0445V39.4531C18.0445 41.75 19.107 42.8984 21.232 42.8984C22.7867 42.8984 24.2828 42.3789 25.7203 41.3398V31.6953H26.9508ZM32.6325 44V31.6953H33.5114L33.6638 33.7344C34.8981 32.375 36.2731 31.6953 37.7888 31.6953V32.6797C36.32 32.6797 35.0114 33.3945 33.863 34.8242V44H32.6325ZM43.2361 42.1953C44.4783 42.6172 45.6228 42.8281 46.6697 42.8281C49.8494 42.8281 51.4392 41.0586 51.4392 37.5195C51.4392 34.3711 49.8572 32.7969 46.6931 32.7969C45.5994 32.7969 44.447 32.8906 43.2361 33.0781V42.1953ZM42.0056 32.1992C43.4041 31.8633 44.9744 31.6953 46.7166 31.6953C50.6619 31.6953 52.6345 33.6445 52.6345 37.543C52.6345 41.8477 50.6502 44 46.6814 44C45.697 44 44.5486 43.8047 43.2361 43.4141V48.4531H42.0056V32.1992ZM58.3748 37.8008C58.3748 41.3086 59.8788 43.0625 62.8866 43.0625C65.8944 43.0625 67.3983 41.3086 67.3983 37.8008C67.3983 34.3555 65.8944 32.6328 62.8866 32.6328C59.8788 32.6328 58.3748 34.3555 58.3748 37.8008ZM57.1444 37.8477C57.1444 33.668 59.0584 31.5781 62.8866 31.5781C66.7147 31.5781 68.6288 33.668 68.6288 37.8477C68.6288 42.0195 66.7147 44.1055 62.8866 44.1055C59.0741 44.1055 57.16 42.0195 57.1444 37.8477ZM73.4784 43.4141V42.2422C74.8456 42.7109 76.1894 42.9453 77.5097 42.9453C80.0956 42.9453 81.3886 42.125 81.3886 40.4844C81.3886 39.1562 80.4316 38.4922 78.5175 38.4922H76.9472C74.3691 38.4922 73.08 37.3984 73.08 35.2109C73.08 32.8672 74.787 31.6953 78.2011 31.6953C79.5136 31.6953 80.8534 31.8906 82.2206 32.2812V33.4531C80.8534 32.9844 79.5136 32.75 78.2011 32.75C75.6073 32.75 74.3105 33.5703 74.3105 35.2109C74.3105 36.6172 75.1894 37.3203 76.9472 37.3203H78.5175C81.2519 37.3203 82.6191 38.375 82.6191 40.4844C82.6191 42.8281 80.9159 44 77.5097 44C76.1894 44 74.8456 43.8047 73.4784 43.4141ZM92.6602 31.6953C96.0273 31.6953 97.7109 33.5586 97.7109 37.2852C97.7109 37.5508 97.7031 37.8281 97.6875 38.1172H88.3477C88.3477 41.3359 90.0508 42.9453 93.457 42.9453C94.8555 42.9453 96.0977 42.75 97.1836 42.3594V43.4141C96.0977 43.8047 94.8555 44 93.457 44C89.2305 44 87.1172 41.9023 87.1172 37.707C87.1172 33.6992 88.9648 31.6953 92.6602 31.6953ZM88.3477 37.0156H96.5273C96.4805 34.1562 95.1914 32.7266 92.6602 32.7266C89.9258 32.7266 88.4883 34.1562 88.3477 37.0156Z" fill="#397D54"/>
</svg>
