<svg width="48" height="48" viewBox="0 0 48 48" fill="none" xmlns="http://www.w3.org/2000/svg">
<path d="M24 0C10.7674 0 0 10.7651 0 24C0 37.2349 10.7674 48 24 48C37.2326 48 48 37.2349 48 24C48 10.7651 37.2326 0 24 0ZM24 46.4014C11.649 46.4014 1.6015 36.3518 1.6015 24C1.6015 11.6482 11.649 1.5986 24 1.5986C36.351 1.5986 46.3985 11.6482 46.3985 24C46.3985 36.3518 36.351 46.4014 24 46.4014Z" fill="#212429"/>
<path d="M37.1622 16.5848C37.3282 16.2774 37.465 15.9552 37.5708 15.6223C37.6198 15.4679 37.6208 15.3023 37.5737 15.1473C37.5266 14.9923 37.4335 14.8552 37.3069 14.7542C37.1803 14.6532 37.026 14.5929 36.8644 14.5814C36.7028 14.5699 36.5416 14.6077 36.4019 14.6898C35.635 15.1454 34.8047 15.4849 33.9383 15.6971C32.8865 14.7478 31.5205 14.2215 30.1037 14.2198C29.3339 14.2204 28.5722 14.3764 27.8643 14.6785C27.1563 14.9806 26.5166 15.4226 25.9835 15.9779C25.4504 16.5332 25.035 17.1905 24.7621 17.9102C24.4891 18.63 24.3643 19.3975 24.3952 20.1667C21.0291 19.7429 17.9553 18.0394 15.8114 15.4098C15.7293 15.3101 15.6243 15.2318 15.5054 15.1814C15.3866 15.1311 15.2573 15.1101 15.1286 15.1204C14.9999 15.1307 14.8755 15.1719 14.7662 15.2405C14.6568 15.3091 14.5656 15.4031 14.5003 15.5145C14.0094 16.3571 13.7426 17.3115 13.7253 18.2865C13.708 19.2615 13.9408 20.2247 14.4015 21.0842C14.2885 21.1033 14.18 21.1428 14.0812 21.201C13.9602 21.2781 13.8606 21.3845 13.7915 21.5104C13.7225 21.6362 13.6862 21.7774 13.6861 21.9209C13.6861 23.6198 14.4419 25.1795 15.6603 26.2392L15.6079 26.2916C15.5159 26.3957 15.4526 26.5219 15.4243 26.6579C15.3959 26.7938 15.4035 26.9348 15.4462 27.067C15.7003 27.8596 16.1245 28.5871 16.6891 29.1986C17.2538 29.81 17.9452 30.2907 18.7151 30.607C17.1339 31.3783 15.3645 31.6792 13.6172 31.4736C13.4376 31.4553 13.257 31.4971 13.1037 31.5925C12.9504 31.6878 12.8331 31.8313 12.7701 32.0005C12.7096 32.1709 12.7085 32.3568 12.7669 32.528C12.8253 32.6992 12.9398 32.8456 13.0919 32.9435C15.4672 34.4681 18.2305 35.2781 21.053 35.277C30.3027 35.277 35.8316 27.763 35.8316 20.4989L35.8302 20.2535C36.7266 19.5536 37.5052 18.7147 38.1366 17.7687C38.2322 17.6257 38.2792 17.4557 38.2707 17.2839C38.2622 17.1121 38.1985 16.9476 38.0892 16.8148C37.9799 16.682 37.8307 16.5879 37.6638 16.5464C37.4968 16.505 37.321 16.5184 37.1622 16.5848ZM34.5505 19.2117C34.4418 19.2898 34.3545 19.3939 34.2965 19.5144C34.2384 19.6349 34.2115 19.7681 34.2182 19.9017C34.2272 20.0993 34.2316 20.2999 34.2316 20.4974C34.2316 26.9757 29.3029 33.6769 21.0545 33.6769C19.5833 33.6776 18.1226 33.4307 16.7334 32.9465C18.3972 32.6276 19.9601 31.9141 21.291 30.8659C21.4205 30.7638 21.5153 30.6241 21.5625 30.466C21.6097 30.3079 21.6068 30.1391 21.5544 29.9826C21.502 29.8262 21.4026 29.6898 21.2697 29.592C21.1368 29.4943 20.9769 29.4399 20.812 29.4365C20.1667 29.4241 19.5332 29.2603 18.9628 28.9582C18.3924 28.6561 17.901 28.2241 17.5282 27.6971C17.9069 27.6717 18.278 27.6088 18.6388 27.5115C18.8133 27.4648 18.9669 27.3603 19.0745 27.2151C19.182 27.0698 19.2371 26.8924 19.2309 26.7118C19.2246 26.5311 19.1574 26.358 19.04 26.2205C18.9227 26.083 18.7623 25.9894 18.5849 25.9549C17.856 25.8066 17.1812 25.4629 16.6325 24.9607C16.0839 24.4584 15.6821 23.8164 15.4702 23.1034C15.8683 23.2037 16.2769 23.2621 16.6855 23.2755C17.0373 23.274 17.3635 23.0585 17.4728 22.7202C17.5821 22.3819 17.4534 22.0092 17.1555 21.8117C16.4513 21.3424 15.909 20.6672 15.6028 19.8782C15.2966 19.0893 15.2414 18.225 15.4447 17.4035C18.0446 20.0713 21.5552 21.66 25.2752 21.8521C25.5387 21.8536 25.7692 21.7593 25.9293 21.5662C26.0895 21.3731 26.1508 21.1171 26.094 20.8717C25.8892 19.99 25.9808 19.0655 26.3545 18.2412C26.7281 17.4168 27.363 16.7386 28.1609 16.3115C28.9589 15.8844 29.8753 15.7322 30.7684 15.8785C31.6616 16.0247 32.4816 16.4613 33.1016 17.1206C33.1945 17.2198 33.3112 17.2936 33.4405 17.3353C33.5699 17.3769 33.7077 17.3849 33.841 17.3586C34.088 17.3092 34.3319 17.2523 34.5729 17.1865C34.4643 17.2678 34.3514 17.3433 34.2346 17.4125C34.0794 17.5076 33.9613 17.6527 33.8996 17.824C33.8379 17.9952 33.8364 18.1824 33.8953 18.3546C33.9542 18.5268 34.07 18.6738 34.2237 18.7714C34.3773 18.869 34.5596 18.9113 34.7405 18.8914L35.0129 18.8569C34.8629 18.9805 34.7087 19.0988 34.5505 19.2117Z" fill="#186049"/>
</svg>
