<svg width="20" height="21" viewBox="0 0 20 21" fill="none" xmlns="http://www.w3.org/2000/svg">
<path d="M17.7778 2.1H13.1333C12.6667 0.882 11.4444 0 10 0C8.55556 0 7.33333 0.882 6.86667 2.1H2.22222C1 2.1 0 3.045 0 4.2V18.9C0 20.055 1 21 2.22222 21H17.7778C19 21 20 20.055 20 18.9V4.2C20 3.045 19 2.1 17.7778 2.1ZM10 2.1C10.6111 2.1 11.1111 2.5725 11.1111 3.15C11.1111 3.7275 10.6111 4.2 10 4.2C9.38889 4.2 8.88889 3.7275 8.88889 3.15C8.88889 2.5725 9.38889 2.1 10 2.1ZM7.77778 16.8L3.33333 12.6L4.9 11.1195L7.77778 13.8285L15.1 6.909L16.6667 8.4L7.77778 16.8Z" fill="#212429"/>
</svg>
