<svg width="75" height="10" viewBox="0 0 75 10" fill="none" xmlns="http://www.w3.org/2000/svg">
<path d="M0.531938 4.812C0.531938 3.996 0.715938 3.264 1.08394 2.616C1.45194 1.96 1.95194 1.448 2.58394 1.08C3.22394 0.712 3.93194 0.528 4.70794 0.528C5.61994 0.528 6.41594 0.748 7.09594 1.188C7.77594 1.628 8.27194 2.252 8.58394 3.06H7.27594C7.04394 2.556 6.70794 2.168 6.26794 1.896C5.83594 1.624 5.31594 1.488 4.70794 1.488C4.12394 1.488 3.59994 1.624 3.13594 1.896C2.67194 2.168 2.30794 2.556 2.04394 3.06C1.77994 3.556 1.64794 4.14 1.64794 4.812C1.64794 5.476 1.77994 6.06 2.04394 6.564C2.30794 7.06 2.67194 7.444 3.13594 7.716C3.59994 7.988 4.12394 8.124 4.70794 8.124C5.31594 8.124 5.83594 7.992 6.26794 7.728C6.70794 7.456 7.04394 7.068 7.27594 6.564H8.58394C8.27194 7.364 7.77594 7.984 7.09594 8.424C6.41594 8.856 5.61994 9.072 4.70794 9.072C3.93194 9.072 3.22394 8.892 2.58394 8.532C1.95194 8.164 1.45194 7.656 1.08394 7.008C0.715938 6.36 0.531938 5.628 0.531938 4.812ZM14.0375 9.108C13.4215 9.108 12.8615 8.968 12.3575 8.688C11.8615 8.408 11.4695 8.012 11.1815 7.5C10.9015 6.98 10.7615 6.38 10.7615 5.7C10.7615 5.028 10.9055 4.436 11.1935 3.924C11.4895 3.404 11.8895 3.008 12.3935 2.736C12.8975 2.456 13.4615 2.316 14.0855 2.316C14.7095 2.316 15.2735 2.456 15.7775 2.736C16.2815 3.008 16.6775 3.4 16.9655 3.912C17.2615 4.424 17.4095 5.02 17.4095 5.7C17.4095 6.38 17.2575 6.98 16.9535 7.5C16.6575 8.012 16.2535 8.408 15.7415 8.688C15.2295 8.968 14.6615 9.108 14.0375 9.108ZM14.0375 8.148C14.4295 8.148 14.7975 8.056 15.1415 7.872C15.4855 7.688 15.7615 7.412 15.9695 7.044C16.1855 6.676 16.2935 6.228 16.2935 5.7C16.2935 5.172 16.1895 4.724 15.9815 4.356C15.7735 3.988 15.5015 3.716 15.1655 3.54C14.8295 3.356 14.4655 3.264 14.0735 3.264C13.6735 3.264 13.3055 3.356 12.9695 3.54C12.6415 3.716 12.3775 3.988 12.1775 4.356C11.9775 4.724 11.8775 5.172 11.8775 5.7C11.8775 6.236 11.9735 6.688 12.1655 7.056C12.3655 7.424 12.6295 7.7 12.9575 7.884C13.2855 8.06 13.6455 8.148 14.0375 8.148ZM23.0093 2.304C23.8093 2.304 24.4573 2.548 24.9533 3.036C25.4493 3.516 25.6973 4.212 25.6973 5.124V9H24.6173V5.28C24.6173 4.624 24.4533 4.124 24.1253 3.78C23.7973 3.428 23.3493 3.252 22.7813 3.252C22.2053 3.252 21.7453 3.432 21.4013 3.792C21.0653 4.152 20.8973 4.676 20.8973 5.364V9H19.8053V2.424H20.8973V3.36C21.1133 3.024 21.4053 2.764 21.7733 2.58C22.1493 2.396 22.5613 2.304 23.0093 2.304ZM29.773 3.324V7.2C29.773 7.52 29.841 7.748 29.977 7.884C30.113 8.012 30.349 8.076 30.685 8.076H31.489V9H30.505C29.897 9 29.441 8.86 29.137 8.58C28.833 8.3 28.681 7.84 28.681 7.2V3.324H27.829V2.424H28.681V0.767999H29.773V2.424H31.489V3.324H29.773ZM33.3641 5.688C33.3641 5.016 33.5001 4.428 33.7721 3.924C34.0441 3.412 34.4161 3.016 34.8881 2.736C35.3681 2.456 35.9001 2.316 36.4841 2.316C37.0601 2.316 37.5601 2.44 37.9841 2.688C38.4081 2.936 38.7241 3.248 38.9321 3.624V2.424H40.0361V9H38.9321V7.776C38.7161 8.16 38.3921 8.48 37.9601 8.736C37.5361 8.984 37.0401 9.108 36.4721 9.108C35.8881 9.108 35.3601 8.964 34.8881 8.676C34.4161 8.388 34.0441 7.984 33.7721 7.464C33.5001 6.944 33.3641 6.352 33.3641 5.688ZM38.9321 5.7C38.9321 5.204 38.8321 4.772 38.6321 4.404C38.4321 4.036 38.1601 3.756 37.8161 3.564C37.4801 3.364 37.1081 3.264 36.7001 3.264C36.2921 3.264 35.9201 3.36 35.5841 3.552C35.2481 3.744 34.9801 4.024 34.7801 4.392C34.5801 4.76 34.4801 5.192 34.4801 5.688C34.4801 6.192 34.5801 6.632 34.7801 7.008C34.9801 7.376 35.2481 7.66 35.5841 7.86C35.9201 8.052 36.2921 8.148 36.7001 8.148C37.1081 8.148 37.4801 8.052 37.8161 7.86C38.1601 7.66 38.4321 7.376 38.6321 7.008C38.8321 6.632 38.9321 6.196 38.9321 5.7ZM42.4335 5.7C42.4335 5.02 42.5695 4.428 42.8415 3.924C43.1135 3.412 43.4895 3.016 43.9695 2.736C44.4575 2.456 45.0135 2.316 45.6375 2.316C46.4455 2.316 47.1095 2.512 47.6295 2.904C48.1575 3.296 48.5055 3.84 48.6735 4.536H47.4975C47.3855 4.136 47.1655 3.82 46.8375 3.588C46.5175 3.356 46.1175 3.24 45.6375 3.24C45.0135 3.24 44.5095 3.456 44.1255 3.888C43.7415 4.312 43.5495 4.916 43.5495 5.7C43.5495 6.492 43.7415 7.104 44.1255 7.536C44.5095 7.968 45.0135 8.184 45.6375 8.184C46.1175 8.184 46.5175 8.072 46.8375 7.848C47.1575 7.624 47.3775 7.304 47.4975 6.888H48.6735C48.4975 7.56 48.1455 8.1 47.6175 8.508C47.0895 8.908 46.4295 9.108 45.6375 9.108C45.0135 9.108 44.4575 8.968 43.9695 8.688C43.4895 8.408 43.1135 8.012 42.8415 7.5C42.5695 6.988 42.4335 6.388 42.4335 5.7ZM52.4226 3.324V7.2C52.4226 7.52 52.4906 7.748 52.6266 7.884C52.7626 8.012 52.9986 8.076 53.3346 8.076H54.1386V9H53.1546C52.5466 9 52.0906 8.86 51.7866 8.58C51.4826 8.3 51.3306 7.84 51.3306 7.2V3.324H50.4786V2.424H51.3306V0.767999H52.4226V2.424H54.1386V3.324H52.4226ZM61.6489 0.636V5.928C61.6489 6.672 61.8289 7.224 62.1889 7.584C62.5569 7.944 63.0649 8.124 63.7129 8.124C64.3529 8.124 64.8529 7.944 65.2129 7.584C65.5809 7.224 65.7649 6.672 65.7649 5.928V0.636H66.8569V5.916C66.8569 6.612 66.7169 7.2 66.4369 7.68C66.1569 8.152 65.7769 8.504 65.2969 8.736C64.8249 8.968 64.2929 9.084 63.7009 9.084C63.1089 9.084 62.5729 8.968 62.0929 8.736C61.6209 8.504 61.2449 8.152 60.9649 7.68C60.6929 7.2 60.5569 6.612 60.5569 5.916V0.636H61.6489ZM71.9665 9.108C71.4625 9.108 71.0105 9.024 70.6105 8.856C70.2105 8.68 69.8945 8.44 69.6625 8.136C69.4305 7.824 69.3025 7.468 69.2785 7.068H70.4065C70.4385 7.396 70.5905 7.664 70.8625 7.872C71.1425 8.08 71.5065 8.184 71.9545 8.184C72.3705 8.184 72.6985 8.092 72.9385 7.908C73.1785 7.724 73.2985 7.492 73.2985 7.212C73.2985 6.924 73.1705 6.712 72.9145 6.576C72.6585 6.432 72.2625 6.292 71.7265 6.156C71.2385 6.028 70.8385 5.9 70.5265 5.772C70.2225 5.636 69.9585 5.44 69.7345 5.184C69.5185 4.92 69.4105 4.576 69.4105 4.152C69.4105 3.816 69.5105 3.508 69.7105 3.228C69.9105 2.948 70.1945 2.728 70.5625 2.568C70.9305 2.4 71.3505 2.316 71.8225 2.316C72.5505 2.316 73.1385 2.5 73.5865 2.868C74.0345 3.236 74.2745 3.74 74.3065 4.38H73.2145C73.1905 4.036 73.0505 3.76 72.7945 3.552C72.5465 3.344 72.2105 3.24 71.7865 3.24C71.3945 3.24 71.0825 3.324 70.8505 3.492C70.6185 3.66 70.5025 3.88 70.5025 4.152C70.5025 4.368 70.5705 4.548 70.7065 4.692C70.8505 4.828 71.0265 4.94 71.2345 5.028C71.4505 5.108 71.7465 5.2 72.1225 5.304C72.5945 5.432 72.9785 5.56 73.2745 5.688C73.5705 5.808 73.8225 5.992 74.0305 6.24C74.2465 6.488 74.3585 6.812 74.3665 7.212C74.3665 7.572 74.2665 7.896 74.0665 8.184C73.8665 8.472 73.5825 8.7 73.2145 8.868C72.8545 9.028 72.4385 9.108 71.9665 9.108Z" fill="#186049"/>
</svg>
