<svg width="48" height="48" viewBox="0 0 48 48" fill="none" xmlns="http://www.w3.org/2000/svg">
<path d="M24 0C10.7674 0 0 10.7651 0 24C0 37.2349 10.7674 48 24 48C37.2326 48 48 37.2349 48 24C48 10.7651 37.2326 0 24 0ZM24 46.4014C11.649 46.4014 1.6015 36.3518 1.6015 24C1.6015 11.6482 11.649 1.5986 24 1.5986C36.351 1.5986 46.3985 11.6482 46.3985 24C46.3985 36.3518 36.351 46.4014 24 46.4014Z" fill="#212429"/>
<path d="M29.2385 10.5286H25.2453C20.1594 10.4777 19.5098 13.6255 19.5098 17.0323V19.5095H17.2647C17.1633 19.496 17.06 19.506 16.963 19.5388C16.8661 19.5716 16.778 19.6264 16.7056 19.6988C16.6332 19.7712 16.5785 19.8593 16.5456 19.9562C16.5128 20.0532 16.5028 20.1565 16.5164 20.2579V24.7484C16.5028 24.8499 16.5128 24.9531 16.5456 25.0501C16.5785 25.1471 16.6332 25.2352 16.7056 25.3076C16.778 25.38 16.8661 25.4347 16.963 25.4675C17.06 25.5003 17.1633 25.5104 17.2647 25.4968H19.5098V36.7229C19.4973 36.8246 19.5083 36.9278 19.5418 37.0246C19.5753 37.1214 19.6304 37.2092 19.7031 37.2814C19.7757 37.3536 19.8639 37.4083 19.9609 37.4412C20.0579 37.4741 20.1611 37.4844 20.2627 37.4714H24.8352C25.2767 37.5223 25.6344 37.1645 25.4937 36.7229L25.4967 25.4968H29.2385C29.34 25.5104 29.4432 25.5003 29.5402 25.4675C29.6372 25.4347 29.7253 25.38 29.7977 25.3076C29.8701 25.2352 29.9248 25.1471 29.9576 25.0501C29.9904 24.9531 30.0004 24.8499 29.9869 24.7484V20.2579C30.0004 20.1565 29.9904 20.0532 29.9576 19.9562C29.9248 19.8593 29.8701 19.7712 29.7977 19.6988C29.7253 19.6264 29.6372 19.5716 29.5402 19.5388C29.4432 19.506 29.34 19.496 29.2385 19.5095H25.4922L25.4967 17.2643C25.6419 16.3078 25.6419 16.4635 26.5295 16.5159H29.2071C29.4151 16.4695 29.6367 16.4949 29.7923 16.3438C29.948 16.1926 30.0378 15.986 29.9854 15.7675V11.277C29.9992 11.1756 29.9894 11.0724 29.9568 10.9754C29.9242 10.8784 29.8696 10.7903 29.7973 10.7178C29.725 10.6454 29.637 10.5906 29.5401 10.5578C29.4431 10.525 29.34 10.515 29.2385 10.5286ZM28.4378 14.9352L26.5609 14.8634C24.2365 14.8634 24.0419 16.1252 24.0419 17.417L24.0359 20.2549C24.0357 20.36 24.0562 20.4641 24.0963 20.5613C24.1364 20.6584 24.1952 20.7467 24.2695 20.8211C24.3437 20.8955 24.4319 20.9545 24.529 20.9948C24.626 21.035 24.7301 21.0557 24.8352 21.0557H28.4902V23.9476H24.8382C24.626 23.9476 24.4226 24.0318 24.2725 24.1816C24.1223 24.3315 24.0378 24.5348 24.0374 24.7469L24.0359 35.9745H21.0065V24.7484C21.0065 24.3068 20.7057 23.9491 20.2627 23.9491H18.0131V21.0572H20.2627C20.3677 21.0574 20.4717 21.0369 20.5688 20.9968C20.6659 20.9567 20.7541 20.8979 20.8284 20.8237C20.9781 20.6726 21.005 20.469 21.005 20.2564V17.0308C21.005 13.6749 21.6831 12.0763 25.2438 12.0763H28.4363V14.9352H28.4378Z" fill="#186049"/>
</svg>
