<svg width="48" height="48" viewBox="0 0 48 48" fill="none" xmlns="http://www.w3.org/2000/svg">
<path fill-rule="evenodd" clip-rule="evenodd" d="M24 12C20.7415 12 20.3326 12.0138 19.0523 12.072C17.7748 12.1302 16.9025 12.3332 16.1391 12.6295C15.3385 12.9311 14.6133 13.4036 14.0142 14.0142C13.4035 14.6136 12.9309 15.3391 12.6295 16.14C12.3332 16.9025 12.1311 17.7748 12.072 19.0523C12.0138 20.3326 12 20.7415 12 24C12 27.2585 12.0138 27.6674 12.072 28.9477C12.1302 30.2252 12.3332 31.0975 12.6295 31.86C12.9369 32.6492 13.3468 33.3185 14.0142 33.9858C14.6133 34.5964 15.3385 35.0689 16.1391 35.3705C16.9025 35.6658 17.7748 35.8689 19.0523 35.928C20.3326 35.9862 20.7415 36 24 36C27.2585 36 27.6674 35.9862 28.9477 35.928C30.2252 35.8698 31.0975 35.6668 31.86 35.3705C32.6609 35.0691 33.3864 34.5966 33.9858 33.9858C34.5965 33.3864 35.0691 32.6609 35.3705 31.86C35.6658 31.0975 35.8689 30.2252 35.928 28.9477C35.9862 27.6674 36 27.2585 36 24C36 20.7415 35.9862 20.3326 35.928 19.0523C35.8698 17.7748 35.6668 16.9025 35.3695 16.14C35.0684 15.3392 34.5962 14.6137 33.9858 14.0142C33.3864 13.4034 32.6609 12.9309 31.86 12.6295C31.0975 12.3342 30.2252 12.1311 28.9477 12.072C27.6674 12.0138 27.2585 12 24 12ZM24 14.1618C27.204 14.1618 27.5834 14.1748 28.8489 14.232C30.0185 14.2855 30.6545 14.4812 31.0772 14.6455C31.6375 14.8634 32.0372 15.1228 32.4572 15.5428C32.8772 15.9628 33.1366 16.3625 33.3545 16.9228C33.5188 17.3455 33.7145 17.9806 33.768 19.1511C33.8252 20.4157 33.8382 20.796 33.8382 24C33.8382 27.204 33.8252 27.5834 33.768 28.8489C33.7145 30.0194 33.5188 30.6545 33.3545 31.0772C33.1622 31.5985 32.8556 32.07 32.4572 32.4572C32.0701 32.8557 31.5985 33.1623 31.0772 33.3545C30.6545 33.5188 30.0185 33.7145 28.8489 33.768C27.5843 33.8252 27.204 33.8382 24 33.8382C20.796 33.8382 20.4157 33.8252 19.1511 33.768C17.9806 33.7145 17.3455 33.5188 16.9228 33.3545C16.4015 33.1623 15.9299 32.8557 15.5428 32.4572C15.1444 32.07 14.8378 31.5985 14.6455 31.0772C14.4812 30.6545 14.2855 30.0194 14.232 28.8489C14.1748 27.5843 14.1618 27.204 14.1618 24C14.1618 20.796 14.1748 20.4166 14.232 19.1511C14.2855 17.9806 14.4812 17.3455 14.6455 16.9228C14.8634 16.3625 15.1228 15.9628 15.5428 15.5428C15.93 15.1443 16.4015 14.8378 16.9228 14.6455C17.3455 14.4812 17.9806 14.2855 19.1511 14.232C20.4157 14.1748 20.796 14.1618 24 14.1618Z" fill="#186049"/>
<path fill-rule="evenodd" clip-rule="evenodd" d="M24 17.5384C22.2863 17.5384 20.6428 18.2192 19.431 19.431C18.2192 20.6427 17.5385 22.2863 17.5385 24C17.5385 25.7137 18.2192 27.3572 19.431 28.569C20.6428 29.7807 22.2863 30.4615 24 30.4615C25.7137 30.4615 27.3572 29.7807 28.569 28.569C29.7808 27.3572 30.4615 25.7137 30.4615 24C30.4615 22.2863 29.7808 20.6427 28.569 19.431C27.3572 18.2192 25.7137 17.5384 24 17.5384ZM24 28.1538C22.8983 28.1538 21.8418 27.7162 21.0628 26.9372C20.2838 26.1582 19.8461 25.1016 19.8461 24C19.8461 22.8983 20.2838 21.8417 21.0628 21.0627C21.8418 20.2838 22.8983 19.8461 24 19.8461C25.1017 19.8461 26.1582 20.2838 26.9372 21.0627C27.7162 21.8417 28.1538 22.8983 28.1538 24C28.1538 25.1016 27.7162 26.1582 26.9372 26.9372C26.1582 27.7162 25.1017 28.1538 24 28.1538ZM32.0308 17.6307C32.0308 17.8247 31.9926 18.0167 31.9183 18.1959C31.8441 18.3751 31.7353 18.5379 31.5982 18.6751C31.461 18.8122 31.2982 18.921 31.119 18.9952C30.9398 19.0695 30.7478 19.1077 30.5538 19.1077C30.3599 19.1077 30.1678 19.0695 29.9886 18.9952C29.8095 18.921 29.6466 18.8122 29.5095 18.6751C29.3723 18.5379 29.2636 18.3751 29.1893 18.1959C29.1151 18.0167 29.0769 17.8247 29.0769 17.6307C29.0769 17.239 29.2325 16.8634 29.5095 16.5864C29.7865 16.3094 30.1621 16.1538 30.5538 16.1538C30.9455 16.1538 31.3212 16.3094 31.5982 16.5864C31.8752 16.8634 32.0308 17.239 32.0308 17.6307Z" fill="#186049"/>
<circle cx="24" cy="24" r="23" stroke="#212429" stroke-width="2"/>
</svg>
