<svg width="98" height="98" viewBox="0 0 98 98" fill="none" xmlns="http://www.w3.org/2000/svg">
<path d="M67.4629 42.1094C67.4629 39.9951 65.749 38.2812 63.6347 38.2812H24.205C22.0908 38.2812 20.3769 39.9951 20.3769 42.1094C20.3769 44.2236 22.0908 45.9375 24.205 45.9375H63.6347C65.749 45.9375 67.4629 44.2236 67.4629 42.1094Z" fill="#186049"/>
<path d="M24.205 53.5938C22.0908 53.5938 20.3769 55.3076 20.3769 57.4219C20.3769 59.5361 22.0908 61.25 24.205 61.25H48.1521C50.2664 61.25 51.9802 59.5361 51.9802 57.4219C51.9802 55.3076 50.2664 53.5938 48.1521 53.5938H24.205Z" fill="#186049"/>
<path d="M33.2011 90.3438H20.3982C16.1765 90.3438 12.7419 86.9092 12.7419 82.6875V15.3125C12.7419 11.0908 16.1765 7.65625 20.3982 7.65625H67.4629C71.6845 7.65625 75.1191 11.0908 75.1191 15.3125V38.8555C75.1191 40.9697 76.833 42.6836 78.9472 42.6836C81.0615 42.6836 82.7754 40.9697 82.7754 38.8555V15.3125C82.7754 6.86919 75.9062 0 67.4629 0H20.3982C11.9549 0 5.08566 6.86919 5.08566 15.3125V82.6875C5.08566 91.1308 11.9549 98 20.3982 98H33.2011C35.3154 98 37.0293 96.2861 37.0293 94.1719C37.0293 92.0576 35.3154 90.3438 33.2011 90.3438Z" fill="#186049"/>
<path d="M89.5559 55.4259C85.0782 50.9482 77.7925 50.948 73.3176 55.4228L52.3006 76.3933C51.8542 76.8387 51.525 77.3873 51.3417 77.9906L46.7646 93.0591C46.3588 94.3951 46.7123 95.8457 47.6873 96.8451C48.4177 97.5937 49.41 98 50.4277 98C50.7682 98 51.112 97.9545 51.4494 97.8609L66.9007 93.5808C67.5365 93.4047 68.1161 93.0673 68.5831 92.601L89.5561 71.6675C94.0339 67.1897 94.0339 59.9041 89.5559 55.4259ZM63.8868 86.4712L56.1134 88.6246L58.3883 81.135L72.5694 66.9853L77.9843 72.4002L63.8868 86.4712ZM84.145 66.2515L83.4033 66.9916L77.9894 61.5777L78.7286 60.84C80.2212 59.3474 82.6498 59.3474 84.1424 60.84C85.635 62.3326 85.635 64.7612 84.145 66.2515Z" fill="#397D54"/>
<path d="M63.6347 22.9688H24.205C22.0908 22.9688 20.3769 24.6826 20.3769 26.7969C20.3769 28.9111 22.0908 30.625 24.205 30.625H63.6347C65.749 30.625 67.4629 28.9111 67.4629 26.7969C67.4629 24.6826 65.749 22.9688 63.6347 22.9688Z" fill="#186049"/>
</svg>
