<svg width="98" height="98" viewBox="0 0 98 98" fill="none" xmlns="http://www.w3.org/2000/svg">
<g clip-path="url(#clip0)">
<path d="M61.105 49.4158L22.7826 51.9706C21.6274 52.0476 20.4752 51.7799 19.4726 51.2005L12.312 47.0666C11.0672 46.348 9.51123 47.246 9.51123 48.6838V64.3971C9.51123 65.8348 11.0672 66.7336 12.312 66.0143L19.4733 61.8804C20.476 61.3017 21.6274 61.034 22.7826 61.111L61.105 63.6658V49.4158Z" fill="#73C088"/>
<path d="M46.6515 50.3788L36.7141 51.0412L39.8858 54.2443C41.3168 55.6896 40.1617 58.1337 38.1369 57.9453L17.557 56.0365C16.4019 55.9595 15.2504 56.2271 14.2478 56.8059L9.51123 59.5409V64.3971C9.51123 65.8349 11.0672 66.7328 12.312 66.0143L19.4726 61.8804C20.4752 61.3017 21.6274 61.0332 22.7826 61.1103L59.715 63.5731L46.6515 50.3788Z" fill="#397D54"/>
<path d="M20.0857 90.2541C20.0857 94.4262 16.7032 97.8087 12.5311 97.8087C8.35907 97.8087 4.97656 94.4262 4.97656 90.2541C4.97656 86.8387 10.0384 77.5331 11.8754 74.2687C12.1633 73.7565 12.899 73.7565 13.1868 74.2687C15.0239 77.5331 20.0857 86.8387 20.0857 90.2541Z" fill="#A7E8F1"/>
<path d="M13.1868 74.2687C12.899 73.7565 12.1633 73.7565 11.8747 74.2687C11.6698 74.6336 11.4223 75.0769 11.1479 75.5764C13.1988 79.5623 15.4673 84.4873 15.4673 86.7737C15.4673 90.9457 12.0848 94.3282 7.9127 94.3282C7.25998 94.3282 6.62669 94.2452 6.02332 94.0897C7.33699 96.3148 9.75873 97.8087 12.5311 97.8087C16.7032 97.8087 20.0849 94.4262 20.0849 90.2541C20.0849 86.8387 15.0239 77.5331 13.1868 74.2687Z" fill="#6BDAE8"/>
<path d="M64.5465 4.30215L59.7188 9.12993L65.3204 14.7308L70.1482 9.90303C73.0507 7.00128 77.773 7.00128 80.6755 9.90303C82.0811 11.3094 82.855 13.1786 82.855 15.1667V32.2662L90.6384 40.0495H90.7767V15.1667C90.7774 11.0627 89.1789 7.2039 86.2764 4.30215C80.286 -1.68901 70.5377 -1.68901 64.5465 4.30215Z" fill="#73C088"/>
<path d="M86.2764 4.30213C84.3384 2.36414 82.0064 1.05644 79.5368 0.372314C80.6449 1.0213 81.6894 1.81908 82.6382 2.76788C85.5407 5.67038 87.1392 9.52916 87.1385 13.6332V36.5496L90.6384 40.0495H90.7767V15.1667C90.7774 11.0627 89.1789 7.20388 86.2764 4.30213Z" fill="#397D54"/>
<path d="M92.1255 44.804L66.883 70.0465C65.2389 71.6914 62.5727 71.6914 60.9278 70.0465L29.1528 38.2716C27.4586 36.5773 27.4586 33.8311 29.1528 32.1368L54.3056 6.9841C55.9497 5.3392 58.6159 5.3392 60.2608 6.9841L92.1255 38.8495C93.7704 40.4937 93.7704 43.1599 92.1255 44.804Z" fill="#397D54"/>
<path d="M54.3055 6.9841L48.5641 12.7248L78.985 43.1457C80.8908 45.0515 80.8908 48.1417 78.985 50.0475L59.9565 69.076L60.9278 70.0465C62.5719 71.6914 65.2381 71.6914 66.883 70.0465L92.1255 44.804C93.7704 43.1599 93.7704 40.4937 92.1255 38.8488L60.2608 6.9841C58.6159 5.3392 55.9497 5.3392 54.3055 6.9841Z" fill="#186049"/>
<path d="M62.9899 31.2635C67.8617 36.1354 68.6109 43.6526 68.7163 46.4452C68.7388 47.0515 68.2408 47.5495 67.6352 47.5263C64.8426 47.4209 57.3254 46.6725 52.4528 41.7998C47.5809 36.9279 46.8317 29.4108 46.7263 26.6182C46.7039 26.0118 47.2018 25.5139 47.8074 25.537C50.6 25.6425 58.1172 26.3909 62.9899 31.2635Z" fill="#92DFB7"/>
<path d="M47.8074 25.537C47.2018 25.5139 46.7031 26.0118 46.7263 26.6182C46.727 26.6264 46.727 26.6354 46.727 26.6443C50.2509 27.1094 55.4921 28.4283 59.2014 32.1376C64.0583 36.9952 64.8172 44.481 64.9264 47.2938C66.0314 47.4396 66.9683 47.5016 67.6352 47.5271C68.2408 47.5495 68.7388 47.0515 68.7164 46.4459C68.6109 43.6526 67.8618 36.1354 62.9899 31.2635C58.1172 26.3909 50.6 25.6425 47.8074 25.537Z" fill="#6FD6A2"/>
<path d="M71.2749 51.7754C70.9078 51.7754 70.5399 51.6356 70.2603 51.3552L54.5171 35.612C53.9564 35.0513 53.9564 34.1421 54.5171 33.5813C55.0771 33.0213 55.9863 33.0213 56.5471 33.5813L72.2902 49.3245C72.851 49.8853 72.851 50.7944 72.2902 51.3552C72.0099 51.6356 71.6428 51.7754 71.2749 51.7754Z" fill="#6FD6A2"/>
</g>
<defs>
<clipPath id="clip0">
<rect width="98" height="98" fill="white"/>
</clipPath>
</defs>
</svg>
