<svg width="88" height="88" viewBox="0 0 88 88" fill="none" xmlns="http://www.w3.org/2000/svg">
<path d="M87.102 44.0006C87.102 67.8053 67.8051 87.102 44 87.102C20.1949 87.102 0.897957 67.8053 0.897957 44.0006C0.897957 20.1959 20.1949 0.897949 44 0.897949C67.8051 0.897949 87.102 20.1959 87.102 44.0006Z" fill="#397D54"/>
<path d="M44.3849 0.897949C43.3482 0.897949 42.3236 0.947701 41.3061 1.02172C63.4602 2.61499 80.9444 21.2404 80.9444 43.9988C80.9444 66.7572 63.4602 85.3838 41.3061 86.9783C42.3236 87.0511 43.3482 87.102 44.3849 87.102C67.9774 87.102 87.102 67.8044 87.102 44C87.102 20.1956 67.9774 0.897949 44.3849 0.897949Z" fill="#CBEAD1"/>
<path d="M43.6151 87.102C44.6518 87.102 45.6764 87.0523 46.6939 86.9783C24.5398 85.385 7.05555 66.7593 7.05555 44.0006C7.05555 21.2419 24.5398 2.61502 46.6939 1.02172C45.6764 0.948915 44.6518 0.897949 43.6151 0.897949C20.0226 0.897949 0.897957 20.1959 0.897957 44.0006C0.897957 67.8053 20.0226 87.102 43.6151 87.102Z" fill="#73C088"/>
<path d="M44.0006 88C19.7391 88 0 68.2609 0 44.0006C0 19.7391 19.7391 0 44.0006 0C68.2621 0 88 19.7391 88 44.0006C88 68.2609 68.2621 88 44.0006 88ZM44.0006 2.46588C21.0985 2.46588 2.46588 21.0985 2.46588 44.0006C2.46588 66.9027 21.0985 85.5341 44.0006 85.5341C66.9027 85.5341 85.5341 66.9027 85.5341 44.0006C85.5341 21.0985 66.9027 2.46588 44.0006 2.46588Z" fill="#186049"/>
<path d="M37.4895 36.1438C29.5451 28.1995 19.387 25.4785 14.7995 30.0648C10.2132 34.6523 12.9342 44.8104 20.8785 52.7548C28.8216 60.6979 38.9798 63.4201 43.5673 58.8326C48.1548 54.2451 45.4326 44.0869 37.4895 36.1438Z" fill="#73C088"/>
<path d="M73.2 30.0654C68.6124 25.4778 58.4543 28.2001 50.5112 36.1432C42.5668 44.0875 39.8458 54.2457 44.4321 58.8332C49.0196 63.4195 59.1778 60.6985 67.1221 52.7541C75.0652 44.811 77.7875 34.6529 73.2 30.0654Z" fill="#73C088"/>
<path d="M37.6291 61.0612C31.0624 61.0612 24.6344 58.4825 19.8919 53.7399C13.5965 47.4445 11.1152 38.1809 13.4152 29.5623C13.5296 29.1327 13.8667 28.7956 14.2975 28.68C22.9148 26.3811 32.1796 28.8613 38.4749 35.1579C44.7703 41.4521 47.2517 50.717 44.9528 59.3343C44.8372 59.7651 44.5001 60.1022 44.0693 60.2179C41.9433 60.785 39.7783 61.0612 37.6291 61.0612ZM43.748 59.0131H43.7541H43.748ZM15.6459 30.9119C13.8898 38.4693 16.157 46.4819 21.6541 51.979C27.1511 57.4748 35.1648 59.7432 42.7197 57.9859C44.4758 50.4285 42.2086 42.4172 36.7115 36.9201C31.2157 31.4231 23.2057 29.1571 15.6459 30.9119Z" fill="#186049"/>
<path d="M51.0477 61.0612C48.9554 61.0612 46.8501 60.785 44.7815 60.2167C44.3623 60.1023 44.0355 59.7652 43.923 59.3344C41.6851 50.7171 44.0995 41.4525 50.2248 35.1572C56.3501 28.8619 65.3646 26.3817 73.7491 28.6793C74.1683 28.7949 74.4963 29.132 74.6076 29.5628C76.8455 38.1801 74.4312 47.4447 68.3047 53.74C63.6926 58.4825 57.4371 61.0612 51.0477 61.0612ZM46.0947 57.986C53.4455 59.7408 61.2427 57.4749 66.5913 51.9779C71.9386 46.4821 74.1458 38.4697 72.4372 30.9124C65.0863 29.1564 57.2891 31.4223 51.9405 36.9205C46.592 42.4175 44.386 50.4287 46.0947 57.986Z" fill="#186049"/>
<path d="M44.449 87.1021C43.7058 87.1021 43.102 86.5345 43.102 85.8359V53.3479C43.102 52.648 43.7058 52.0817 44.449 52.0817C45.1922 52.0817 45.7959 52.648 45.7959 53.3479V85.8359C45.7959 86.5345 45.1922 87.1021 44.449 87.1021Z" fill="#186049"/>
</svg>
