<svg width="94" height="14" viewBox="0 0 94 14" fill="none" xmlns="http://www.w3.org/2000/svg">
<path d="M5.67248 4.084C5.67248 4.78 5.43248 5.36 4.95248 5.824C4.48048 6.28 3.75648 6.508 2.78048 6.508H1.17248V10H0.0804828V1.636H2.78048C3.72448 1.636 4.44048 1.864 4.92848 2.32C5.42448 2.776 5.67248 3.364 5.67248 4.084ZM2.78048 5.608C3.38848 5.608 3.83648 5.476 4.12448 5.212C4.41248 4.948 4.55648 4.572 4.55648 4.084C4.55648 3.052 3.96448 2.536 2.78048 2.536H1.17248V5.608H2.78048ZM9.0817 4.492C9.2737 4.116 9.5457 3.824 9.8977 3.616C10.2577 3.408 10.6937 3.304 11.2057 3.304V4.432H10.9177C9.6937 4.432 9.0817 5.096 9.0817 6.424V10H7.9897V3.424H9.0817V4.492ZM13.9903 2.356C13.7823 2.356 13.6063 2.284 13.4623 2.14C13.3183 1.996 13.2463 1.82 13.2463 1.612C13.2463 1.404 13.3183 1.228 13.4623 1.084C13.6063 0.94 13.7823 0.868 13.9903 0.868C14.1903 0.868 14.3583 0.94 14.4943 1.084C14.6383 1.228 14.7103 1.404 14.7103 1.612C14.7103 1.82 14.6383 1.996 14.4943 2.14C14.3583 2.284 14.1903 2.356 13.9903 2.356ZM14.5183 3.424V10H13.4263V3.424H14.5183ZM19.7874 8.992L21.8274 3.424H22.9914L20.4114 10H19.1394L16.5594 3.424H17.7354L19.7874 8.992ZM24.618 6.688C24.618 6.016 24.754 5.428 25.026 4.924C25.298 4.412 25.67 4.016 26.142 3.736C26.622 3.456 27.154 3.316 27.738 3.316C28.314 3.316 28.814 3.44 29.238 3.688C29.662 3.936 29.978 4.248 30.186 4.624V3.424H31.29V10H30.186V8.776C29.97 9.16 29.646 9.48 29.214 9.736C28.79 9.984 28.294 10.108 27.726 10.108C27.142 10.108 26.614 9.964 26.142 9.676C25.67 9.388 25.298 8.984 25.026 8.464C24.754 7.944 24.618 7.352 24.618 6.688ZM30.186 6.7C30.186 6.204 30.086 5.772 29.886 5.404C29.686 5.036 29.414 4.756 29.07 4.564C28.734 4.364 28.362 4.264 27.954 4.264C27.546 4.264 27.174 4.36 26.838 4.552C26.502 4.744 26.234 5.024 26.034 5.392C25.834 5.76 25.734 6.192 25.734 6.688C25.734 7.192 25.834 7.632 26.034 8.008C26.234 8.376 26.502 8.66 26.838 8.86C27.174 9.052 27.546 9.148 27.954 9.148C28.362 9.148 28.734 9.052 29.07 8.86C29.414 8.66 29.686 8.376 29.886 8.008C30.086 7.632 30.186 7.196 30.186 6.7ZM33.6873 6.7C33.6873 6.02 33.8233 5.428 34.0953 4.924C34.3673 4.412 34.7433 4.016 35.2233 3.736C35.7113 3.456 36.2673 3.316 36.8913 3.316C37.6993 3.316 38.3633 3.512 38.8833 3.904C39.4113 4.296 39.7593 4.84 39.9273 5.536H38.7513C38.6393 5.136 38.4193 4.82 38.0913 4.588C37.7713 4.356 37.3713 4.24 36.8913 4.24C36.2673 4.24 35.7633 4.456 35.3793 4.888C34.9953 5.312 34.8033 5.916 34.8033 6.7C34.8033 7.492 34.9953 8.104 35.3793 8.536C35.7633 8.968 36.2673 9.184 36.8913 9.184C37.3713 9.184 37.7713 9.072 38.0913 8.848C38.4113 8.624 38.6313 8.304 38.7513 7.888H39.9273C39.7513 8.56 39.3993 9.1 38.8713 9.508C38.3433 9.908 37.6833 10.108 36.8913 10.108C36.2673 10.108 35.7113 9.968 35.2233 9.688C34.7433 9.408 34.3673 9.012 34.0953 8.5C33.8233 7.988 33.6873 7.388 33.6873 6.7ZM48.0084 3.424L44.0484 13.096H42.9204L44.2164 9.928L41.5644 3.424H42.7764L44.8404 8.752L46.8804 3.424H48.0084ZM55.3173 4.636C55.5333 4.26 55.8533 3.948 56.2773 3.7C56.7093 3.444 57.2093 3.316 57.7773 3.316C58.3613 3.316 58.8893 3.456 59.3613 3.736C59.8413 4.016 60.2173 4.412 60.4893 4.924C60.7613 5.428 60.8973 6.016 60.8973 6.688C60.8973 7.352 60.7613 7.944 60.4893 8.464C60.2173 8.984 59.8413 9.388 59.3613 9.676C58.8893 9.964 58.3613 10.108 57.7773 10.108C57.2173 10.108 56.7213 9.984 56.2893 9.736C55.8653 9.48 55.5413 9.164 55.3173 8.788V13.12H54.2253V3.424H55.3173V4.636ZM59.7813 6.688C59.7813 6.192 59.6813 5.76 59.4813 5.392C59.2813 5.024 59.0093 4.744 58.6653 4.552C58.3293 4.36 57.9573 4.264 57.5493 4.264C57.1493 4.264 56.7773 4.364 56.4333 4.564C56.0973 4.756 55.8253 5.04 55.6173 5.416C55.4173 5.784 55.3173 6.212 55.3173 6.7C55.3173 7.196 55.4173 7.632 55.6173 8.008C55.8253 8.376 56.0973 8.66 56.4333 8.86C56.7773 9.052 57.1493 9.148 57.5493 9.148C57.9573 9.148 58.3293 9.052 58.6653 8.86C59.0093 8.66 59.2813 8.376 59.4813 8.008C59.6813 7.632 59.7813 7.192 59.7813 6.688ZM66.1627 10.108C65.5467 10.108 64.9867 9.968 64.4827 9.688C63.9867 9.408 63.5947 9.012 63.3067 8.5C63.0267 7.98 62.8867 7.38 62.8867 6.7C62.8867 6.028 63.0307 5.436 63.3187 4.924C63.6147 4.404 64.0147 4.008 64.5187 3.736C65.0227 3.456 65.5867 3.316 66.2107 3.316C66.8347 3.316 67.3987 3.456 67.9027 3.736C68.4067 4.008 68.8027 4.4 69.0907 4.912C69.3867 5.424 69.5347 6.02 69.5347 6.7C69.5347 7.38 69.3827 7.98 69.0787 8.5C68.7827 9.012 68.3787 9.408 67.8667 9.688C67.3547 9.968 66.7867 10.108 66.1627 10.108ZM66.1627 9.148C66.5547 9.148 66.9227 9.056 67.2667 8.872C67.6107 8.688 67.8867 8.412 68.0947 8.044C68.3107 7.676 68.4187 7.228 68.4187 6.7C68.4187 6.172 68.3147 5.724 68.1067 5.356C67.8987 4.988 67.6267 4.716 67.2907 4.54C66.9547 4.356 66.5907 4.264 66.1987 4.264C65.7987 4.264 65.4307 4.356 65.0947 4.54C64.7667 4.716 64.5027 4.988 64.3027 5.356C64.1027 5.724 64.0027 6.172 64.0027 6.7C64.0027 7.236 64.0987 7.688 64.2907 8.056C64.4907 8.424 64.7547 8.7 65.0827 8.884C65.4107 9.06 65.7707 9.148 66.1627 9.148ZM73.0225 1.12V10H71.9305V1.12H73.0225ZM76.4076 2.356C76.1996 2.356 76.0236 2.284 75.8796 2.14C75.7356 1.996 75.6636 1.82 75.6636 1.612C75.6636 1.404 75.7356 1.228 75.8796 1.084C76.0236 0.94 76.1996 0.868 76.4076 0.868C76.6076 0.868 76.7756 0.94 76.9116 1.084C77.0556 1.228 77.1276 1.404 77.1276 1.612C77.1276 1.82 77.0556 1.996 76.9116 2.14C76.7756 2.284 76.6076 2.356 76.4076 2.356ZM76.9356 3.424V10H75.8436V3.424H76.9356ZM79.3487 6.7C79.3487 6.02 79.4847 5.428 79.7567 4.924C80.0287 4.412 80.4047 4.016 80.8847 3.736C81.3727 3.456 81.9287 3.316 82.5527 3.316C83.3607 3.316 84.0247 3.512 84.5447 3.904C85.0727 4.296 85.4207 4.84 85.5887 5.536H84.4127C84.3007 5.136 84.0807 4.82 83.7527 4.588C83.4327 4.356 83.0327 4.24 82.5527 4.24C81.9287 4.24 81.4247 4.456 81.0407 4.888C80.6567 5.312 80.4647 5.916 80.4647 6.7C80.4647 7.492 80.6567 8.104 81.0407 8.536C81.4247 8.968 81.9287 9.184 82.5527 9.184C83.0327 9.184 83.4327 9.072 83.7527 8.848C84.0727 8.624 84.2927 8.304 84.4127 7.888H85.5887C85.4127 8.56 85.0607 9.1 84.5327 9.508C84.0047 9.908 83.3447 10.108 82.5527 10.108C81.9287 10.108 81.3727 9.968 80.8847 9.688C80.4047 9.408 80.0287 9.012 79.7567 8.5C79.4847 7.988 79.3487 7.388 79.3487 6.7ZM93.6698 3.424L89.7098 13.096H88.5818L89.8778 9.928L87.2258 3.424H88.4378L90.5018 8.752L92.5418 3.424H93.6698Z" fill="#186049"/>
</svg>
