<svg width="88" height="11" viewBox="0 0 88 11" fill="none" xmlns="http://www.w3.org/2000/svg">
<path d="M6.3545 1.636V2.524H4.0745V10H2.9825V2.524H0.690501V1.636H6.3545ZM14.6587 6.46C14.6587 6.668 14.6467 6.888 14.6227 7.12H9.36669C9.40669 7.768 9.62669 8.276 10.0267 8.644C10.4347 9.004 10.9267 9.184 11.5027 9.184C11.9747 9.184 12.3667 9.076 12.6787 8.86C12.9987 8.636 13.2227 8.34 13.3507 7.972H14.5267C14.3507 8.604 13.9987 9.12 13.4707 9.52C12.9427 9.912 12.2867 10.108 11.5027 10.108C10.8787 10.108 10.3187 9.968 9.82269 9.688C9.33469 9.408 8.95069 9.012 8.67069 8.5C8.39069 7.98 8.25069 7.38 8.25069 6.7C8.25069 6.02 8.38669 5.424 8.65869 4.912C8.93069 4.4 9.31069 4.008 9.79869 3.736C10.2947 3.456 10.8627 3.316 11.5027 3.316C12.1267 3.316 12.6787 3.452 13.1587 3.724C13.6387 3.996 14.0067 4.372 14.2627 4.852C14.5267 5.324 14.6587 5.86 14.6587 6.46ZM13.5307 6.232C13.5307 5.816 13.4387 5.46 13.2547 5.164C13.0707 4.86 12.8187 4.632 12.4987 4.48C12.1867 4.32 11.8387 4.24 11.4547 4.24C10.9027 4.24 10.4307 4.416 10.0387 4.768C9.65469 5.12 9.43469 5.608 9.37869 6.232H13.5307ZM18.1521 4.492C18.3441 4.116 18.6161 3.824 18.9681 3.616C19.3281 3.408 19.7641 3.304 20.2761 3.304V4.432H19.9881C18.7641 4.432 18.1521 5.096 18.1521 6.424V10H17.0601V3.424H18.1521V4.492ZM30.4047 3.304C30.9167 3.304 31.3727 3.412 31.7727 3.628C32.1727 3.836 32.4887 4.152 32.7207 4.576C32.9527 5 33.0687 5.516 33.0687 6.124V10H31.9887V6.28C31.9887 5.624 31.8247 5.124 31.4967 4.78C31.1767 4.428 30.7407 4.252 30.1887 4.252C29.6207 4.252 29.1687 4.436 28.8327 4.804C28.4967 5.164 28.3287 5.688 28.3287 6.376V10H27.2487V6.28C27.2487 5.624 27.0847 5.124 26.7567 4.78C26.4367 4.428 26.0007 4.252 25.4487 4.252C24.8807 4.252 24.4287 4.436 24.0927 4.804C23.7567 5.164 23.5887 5.688 23.5887 6.376V10H22.4967V3.424H23.5887V4.372C23.8047 4.028 24.0927 3.764 24.4527 3.58C24.8207 3.396 25.2247 3.304 25.6647 3.304C26.2167 3.304 26.7047 3.428 27.1287 3.676C27.5527 3.924 27.8687 4.288 28.0767 4.768C28.2607 4.304 28.5647 3.944 28.9887 3.688C29.4127 3.432 29.8847 3.304 30.4047 3.304ZM38.1479 10.108C37.6439 10.108 37.1919 10.024 36.7919 9.856C36.3919 9.68 36.0759 9.44 35.8439 9.136C35.6119 8.824 35.4839 8.468 35.4599 8.068H36.5879C36.6199 8.396 36.7719 8.664 37.0439 8.872C37.3239 9.08 37.6879 9.184 38.1359 9.184C38.5519 9.184 38.8799 9.092 39.1199 8.908C39.3599 8.724 39.4799 8.492 39.4799 8.212C39.4799 7.924 39.3519 7.712 39.0959 7.576C38.8399 7.432 38.4439 7.292 37.9079 7.156C37.4199 7.028 37.0199 6.9 36.7079 6.772C36.4039 6.636 36.1399 6.44 35.9159 6.184C35.6999 5.92 35.5919 5.576 35.5919 5.152C35.5919 4.816 35.6919 4.508 35.8919 4.228C36.0919 3.948 36.3759 3.728 36.7439 3.568C37.1119 3.4 37.5319 3.316 38.0039 3.316C38.7319 3.316 39.3199 3.5 39.7679 3.868C40.2159 4.236 40.4559 4.74 40.4879 5.38H39.3959C39.3719 5.036 39.2319 4.76 38.9759 4.552C38.7279 4.344 38.3919 4.24 37.9679 4.24C37.5759 4.24 37.2639 4.324 37.0319 4.492C36.7999 4.66 36.6839 4.88 36.6839 5.152C36.6839 5.368 36.7519 5.548 36.8879 5.692C37.0319 5.828 37.2079 5.94 37.4159 6.028C37.6319 6.108 37.9279 6.2 38.3039 6.304C38.7759 6.432 39.1599 6.56 39.4559 6.688C39.7519 6.808 40.0039 6.992 40.2119 7.24C40.4279 7.488 40.5399 7.812 40.5479 8.212C40.5479 8.572 40.4479 8.896 40.2479 9.184C40.0479 9.472 39.7639 9.7 39.3959 9.868C39.0359 10.028 38.6199 10.108 38.1479 10.108ZM50.0767 10.108C49.4607 10.108 48.9007 9.968 48.3967 9.688C47.9007 9.408 47.5087 9.012 47.2207 8.5C46.9407 7.98 46.8007 7.38 46.8007 6.7C46.8007 6.028 46.9447 5.436 47.2327 4.924C47.5287 4.404 47.9287 4.008 48.4327 3.736C48.9367 3.456 49.5007 3.316 50.1247 3.316C50.7487 3.316 51.3127 3.456 51.8167 3.736C52.3207 4.008 52.7167 4.4 53.0047 4.912C53.3007 5.424 53.4487 6.02 53.4487 6.7C53.4487 7.38 53.2967 7.98 52.9927 8.5C52.6967 9.012 52.2927 9.408 51.7807 9.688C51.2687 9.968 50.7007 10.108 50.0767 10.108ZM50.0767 9.148C50.4687 9.148 50.8367 9.056 51.1807 8.872C51.5247 8.688 51.8007 8.412 52.0087 8.044C52.2247 7.676 52.3327 7.228 52.3327 6.7C52.3327 6.172 52.2287 5.724 52.0207 5.356C51.8127 4.988 51.5407 4.716 51.2047 4.54C50.8687 4.356 50.5047 4.264 50.1127 4.264C49.7127 4.264 49.3447 4.356 49.0087 4.54C48.6807 4.716 48.4167 4.988 48.2167 5.356C48.0167 5.724 47.9167 6.172 47.9167 6.7C47.9167 7.236 48.0127 7.688 48.2047 8.056C48.4047 8.424 48.6687 8.7 48.9967 8.884C49.3247 9.06 49.6847 9.148 50.0767 9.148ZM58.5205 4.324H57.1405V10H56.0485V4.324H55.1965V3.424H56.0485V2.956C56.0485 2.22 56.2365 1.684 56.6125 1.348C56.9965 1.004 57.6085 0.831999 58.4485 0.831999V1.744C57.9685 1.744 57.6285 1.84 57.4285 2.032C57.2365 2.216 57.1405 2.524 57.1405 2.956V3.424H58.5205V4.324ZM65.9809 1.636V6.928C65.9809 7.672 66.1609 8.224 66.5209 8.584C66.8889 8.944 67.3969 9.124 68.0449 9.124C68.6849 9.124 69.1849 8.944 69.5449 8.584C69.9129 8.224 70.0969 7.672 70.0969 6.928V1.636H71.1889V6.916C71.1889 7.612 71.0489 8.2 70.7689 8.68C70.4889 9.152 70.1089 9.504 69.6289 9.736C69.1569 9.968 68.6249 10.084 68.0329 10.084C67.4409 10.084 66.9049 9.968 66.4249 9.736C65.9529 9.504 65.5769 9.152 65.2969 8.68C65.0249 8.2 64.8889 7.612 64.8889 6.916V1.636H65.9809ZM76.2986 10.108C75.7946 10.108 75.3426 10.024 74.9426 9.856C74.5426 9.68 74.2266 9.44 73.9946 9.136C73.7626 8.824 73.6346 8.468 73.6106 8.068H74.7386C74.7706 8.396 74.9226 8.664 75.1946 8.872C75.4746 9.08 75.8386 9.184 76.2866 9.184C76.7026 9.184 77.0306 9.092 77.2706 8.908C77.5106 8.724 77.6306 8.492 77.6306 8.212C77.6306 7.924 77.5026 7.712 77.2466 7.576C76.9906 7.432 76.5946 7.292 76.0586 7.156C75.5706 7.028 75.1706 6.9 74.8586 6.772C74.5546 6.636 74.2906 6.44 74.0666 6.184C73.8506 5.92 73.7426 5.576 73.7426 5.152C73.7426 4.816 73.8426 4.508 74.0426 4.228C74.2426 3.948 74.5266 3.728 74.8946 3.568C75.2626 3.4 75.6826 3.316 76.1546 3.316C76.8826 3.316 77.4706 3.5 77.9186 3.868C78.3666 4.236 78.6066 4.74 78.6386 5.38H77.5466C77.5226 5.036 77.3826 4.76 77.1266 4.552C76.8786 4.344 76.5426 4.24 76.1186 4.24C75.7266 4.24 75.4146 4.324 75.1826 4.492C74.9506 4.66 74.8346 4.88 74.8346 5.152C74.8346 5.368 74.9026 5.548 75.0386 5.692C75.1826 5.828 75.3586 5.94 75.5666 6.028C75.7826 6.108 76.0786 6.2 76.4546 6.304C76.9266 6.432 77.3106 6.56 77.6066 6.688C77.9026 6.808 78.1546 6.992 78.3626 7.24C78.5786 7.488 78.6906 7.812 78.6986 8.212C78.6986 8.572 78.5986 8.896 78.3986 9.184C78.1986 9.472 77.9146 9.7 77.5466 9.868C77.1866 10.028 76.7706 10.108 76.2986 10.108ZM87.2001 6.46C87.2001 6.668 87.1881 6.888 87.1641 7.12H81.9081C81.9481 7.768 82.1681 8.276 82.5681 8.644C82.9761 9.004 83.4681 9.184 84.0441 9.184C84.5161 9.184 84.9081 9.076 85.2201 8.86C85.5401 8.636 85.7641 8.34 85.8921 7.972H87.0681C86.8921 8.604 86.5401 9.12 86.0121 9.52C85.4841 9.912 84.8281 10.108 84.0441 10.108C83.4201 10.108 82.8601 9.968 82.3641 9.688C81.8761 9.408 81.4921 9.012 81.2121 8.5C80.9321 7.98 80.7921 7.38 80.7921 6.7C80.7921 6.02 80.9281 5.424 81.2001 4.912C81.4721 4.4 81.8521 4.008 82.3401 3.736C82.8361 3.456 83.4041 3.316 84.0441 3.316C84.6681 3.316 85.2201 3.452 85.7001 3.724C86.1801 3.996 86.5481 4.372 86.8041 4.852C87.0681 5.324 87.2001 5.86 87.2001 6.46ZM86.0721 6.232C86.0721 5.816 85.9801 5.46 85.7961 5.164C85.6121 4.86 85.3601 4.632 85.0401 4.48C84.7281 4.32 84.3801 4.24 83.9961 4.24C83.4441 4.24 82.9721 4.416 82.5801 4.768C82.1961 5.12 81.9761 5.608 81.9201 6.232H86.0721Z" fill="#186049"/>
</svg>
